<svg xmlns="http://www.w3.org/2000/svg" version="1.0" width="16" height="16">
 <defs />
 <g id="fp-toolbar-disabled-wrapper" wrapper="true">
  <path
   d="M 8,0 C 3.584,8.8817842e-16 -3.006854e-17,3.584 0,8 C 0,12.416 3.584,16 8,16 C 12.416,16 16,12.416 16,8 C 16,3.584 12.416,-1.8665625e-15 8,0 z M 7.8125,1 C 9.8281648,0.94927401 11.856778,1.7662746 13.28125,3.40625 C 15.588012,6.0619933 15.589233,9.9390689 13.28125,12.59375 L 3.40625,2.71875 C 4.6817864,1.6108274 6.2447607,1.0394535 7.8125,1 z M 2.71875,3.40625 L 12.59375,13.28125 C 9.6776547,15.812973 5.2504728,15.509845 2.71875,12.59375 C 0.41476947,9.9399733 0.41589633,6.0610044 2.71875,3.40625 z"
   child="5" />
 </g>
</svg>